%
M48
M72
T01C0.0140
T02C0.0394
T03C0.0472
%
T01
X1687Y1440
X3067Y1320
X4887Y1900
X5167Y1660
X5647Y1900
X8147Y1840
X8507Y2160
X8747Y1880
X9027Y2980
X8747Y3560
X9967Y4000
X7187Y4240
X6167Y3980
X5427Y3620
X5207Y3320
X6427Y3500
X5427Y4500
X5047Y5200
X3327Y4780
X2807Y4780
X2947Y4320
X2387Y3840
X1587Y3980
X1547Y4500
X3387Y3800
X3987Y3840
X2147Y3260
X2707Y2380
X3067Y2380
X7187Y4960
T02
X7967Y5200
X8967Y5200
X9967Y5200
T03
X7675Y2600
X7675Y1143
X3659Y1143
X3659Y2600
M30
