G75*
%MOIN*%
%OFA0B0*%
%FSLAX24Y24*%
%IPPOS*%
%LPD*%
%AMOC8*
5,1,8,0,0,1.08239X$1,22.5*
%
%ADD10C,0.0000*%
%ADD11R,0.0651X0.0572*%
%ADD12R,0.0538X0.0220*%
%ADD13OC8,0.0769*%
%ADD14R,0.0513X0.0847*%
%ADD15R,0.0217X0.0847*%
%ADD16R,0.0560X0.0560*%
%ADD17R,0.0572X0.0651*%
%ADD18C,0.0651*%
%ADD19C,0.0360*%
D10*
X000667Y000800D02*
X000667Y005796D01*
X010637Y005796D01*
X010637Y000800D01*
X000667Y000800D01*
D11*
X001167Y001265D03*
X001167Y001935D03*
X001167Y002865D03*
X001167Y003535D03*
X009267Y001835D03*
X010167Y001835D03*
X010167Y001165D03*
X009267Y001165D03*
X010167Y002765D03*
X010167Y003435D03*
D12*
X006737Y003825D03*
X006737Y004075D03*
X006737Y004325D03*
X006737Y004575D03*
X006737Y004825D03*
X006737Y005075D03*
X006737Y005325D03*
X006737Y005575D03*
X004597Y005575D03*
X004597Y005325D03*
X004597Y005075D03*
X004597Y004825D03*
X004597Y004575D03*
X004597Y004325D03*
X004597Y004075D03*
X004597Y003825D03*
D13*
X003659Y002600D03*
X003659Y001143D03*
X007675Y001143D03*
X007675Y002600D03*
D14*
X006582Y002698D03*
X004751Y002698D03*
D15*
X005155Y002698D03*
X005411Y002698D03*
X005667Y002698D03*
X005923Y002698D03*
X006178Y002698D03*
D16*
X001067Y005300D03*
D17*
X002332Y005300D03*
X003001Y005300D03*
D18*
X007967Y005495D02*
X007967Y004905D01*
X008967Y004905D02*
X008967Y005495D01*
X009967Y005495D02*
X009967Y004905D01*
D19*
X009967Y004000D03*
X008747Y003560D03*
X009027Y002980D03*
X008507Y002160D03*
X008747Y001880D03*
X008147Y001840D03*
X005647Y001900D03*
X005167Y001660D03*
X004887Y001900D03*
X003067Y002380D03*
X002707Y002380D03*
X002147Y003260D03*
X002387Y003840D03*
X001587Y003980D03*
X001547Y004500D03*
X002807Y004780D03*
X003327Y004780D03*
X002947Y004320D03*
X003387Y003800D03*
X003987Y003840D03*
X005207Y003320D03*
X005427Y003620D03*
X006167Y003980D03*
X006427Y003500D03*
X007187Y004240D03*
X007187Y004960D03*
X005427Y004500D03*
X005047Y005200D03*
X001687Y001440D03*
X003067Y001320D03*
M02*
