G75*
%MOIN*%
%OFA0B0*%
%FSLAX24Y24*%
%IPPOS*%
%LPD*%
%AMOC8*
5,1,8,0,0,1.08239X$1,22.5*
%
%ADD10C,0.0000*%
%ADD11R,0.0500X0.0220*%
%ADD12R,0.0220X0.0500*%
%ADD13OC8,0.0709*%
%ADD14R,0.1260X0.0299*%
%ADD15C,0.0591*%
%ADD16R,0.0500X0.0500*%
%ADD17R,0.0512X0.0591*%
%ADD18C,0.0060*%
%ADD19C,0.0300*%
D10*
X000667Y000800D02*
X000667Y005796D01*
X010637Y005796D01*
X010637Y000800D01*
X000667Y000800D01*
D11*
X001077Y002498D03*
X001077Y002813D03*
X001077Y003128D03*
X001077Y003443D03*
X001077Y003757D03*
X001077Y004072D03*
X001077Y004387D03*
X001077Y004702D03*
X004457Y004702D03*
X004457Y004387D03*
X004457Y004072D03*
X004457Y003757D03*
X004457Y003443D03*
X004457Y003128D03*
X004457Y002813D03*
X004457Y002498D03*
D12*
X003869Y001910D03*
X003554Y001910D03*
X003239Y001910D03*
X002924Y001910D03*
X002609Y001910D03*
X002294Y001910D03*
X001979Y001910D03*
X001664Y001910D03*
X001664Y005290D03*
X001979Y005290D03*
X002294Y005290D03*
X002609Y005290D03*
X002924Y005290D03*
X003239Y005290D03*
X003554Y005290D03*
X003869Y005290D03*
D13*
X003659Y002600D03*
X003659Y001143D03*
X007675Y001143D03*
X007675Y002600D03*
D14*
X009867Y002560D03*
X009867Y002060D03*
X009867Y001560D03*
X009867Y001060D03*
X009867Y003060D03*
X009867Y003560D03*
D15*
X009967Y004905D02*
X009967Y005495D01*
X008967Y005495D02*
X008967Y004905D01*
X007967Y004905D02*
X007967Y005495D01*
D16*
X004767Y001200D03*
D17*
X005832Y001200D03*
X006501Y001200D03*
D18*
X005667Y001880D02*
X005647Y001900D01*
X004887Y001900D01*
X005167Y001660D02*
X005227Y001600D01*
X008847Y001600D01*
X009387Y001060D01*
X009867Y001060D01*
X009867Y001060D01*
X009867Y001560D02*
X009867Y001560D01*
X009067Y001560D01*
X008747Y001880D01*
X008547Y002120D02*
X009807Y002120D01*
X009867Y002060D01*
X009867Y002060D01*
X009867Y002540D02*
X009867Y002560D01*
X009867Y002540D02*
X008547Y002540D01*
X008147Y002140D01*
X004107Y002140D01*
X004107Y002800D01*
X003847Y003060D01*
X003047Y003060D01*
X002587Y002600D01*
X001667Y002600D01*
X001667Y001920D01*
X001664Y001910D01*
X001979Y001910D02*
X001987Y001920D01*
X001987Y002380D01*
X002707Y002380D01*
X003067Y002380D02*
X003227Y002380D01*
X003227Y001920D01*
X003239Y001910D01*
X003547Y001900D02*
X003554Y001910D01*
X003547Y001900D02*
X003547Y001600D01*
X003427Y001600D01*
X003147Y001320D01*
X003067Y001320D01*
X002907Y001500D02*
X001747Y001500D01*
X001687Y001440D01*
X002907Y001500D02*
X002907Y001900D01*
X002924Y001910D01*
X003869Y001910D02*
X003887Y001900D01*
X004067Y001900D01*
X004767Y001200D01*
X005667Y001880D02*
X008107Y001880D01*
X008147Y001840D01*
X008507Y002160D02*
X008547Y002120D01*
X009027Y002980D02*
X008687Y003320D01*
X006287Y003320D01*
X006267Y003340D01*
X006427Y003500D01*
X006267Y003340D02*
X006067Y003140D01*
X005207Y003140D01*
X005207Y003320D01*
X005207Y003140D02*
X004467Y003140D01*
X004457Y003128D01*
X004447Y003160D01*
X004147Y003160D01*
X003727Y003580D01*
X003707Y003560D01*
X001547Y003560D01*
X001427Y003440D01*
X001087Y003440D01*
X001077Y003443D01*
X001427Y003440D02*
X001427Y002980D01*
X001367Y002920D01*
X001187Y002920D01*
X001087Y002820D01*
X001077Y002813D01*
X001187Y002600D02*
X001487Y002600D01*
X002147Y003260D01*
X002427Y003800D02*
X003387Y003800D01*
X003727Y003580D02*
X003987Y003840D01*
X004067Y003760D01*
X004447Y003760D01*
X004457Y003757D01*
X004547Y003540D02*
X004727Y003540D01*
X004807Y003620D01*
X004807Y003860D01*
X006167Y003860D01*
X006167Y003980D01*
X006167Y003860D02*
X009567Y003860D01*
X009847Y003580D01*
X009867Y003560D01*
X009867Y003560D01*
X010207Y003900D01*
X010207Y005200D01*
X009967Y005200D01*
X007967Y005200D02*
X007487Y004720D01*
X005647Y004720D01*
X005427Y004500D01*
X004807Y004060D02*
X004467Y004060D01*
X004457Y004072D01*
X004447Y004080D01*
X002287Y004080D01*
X002067Y003860D01*
X001587Y003860D01*
X001587Y003980D01*
X001587Y003860D02*
X001187Y003860D01*
X001087Y003760D01*
X001077Y003757D01*
X001077Y004387D02*
X001087Y004400D01*
X001187Y004500D01*
X001547Y004500D01*
X002807Y004780D02*
X002907Y004780D01*
X002907Y005280D01*
X002924Y005290D01*
X003239Y005290D02*
X003247Y005280D01*
X003327Y005280D01*
X003327Y004780D01*
X003567Y005100D02*
X003727Y004940D01*
X004007Y004940D01*
X004147Y005080D01*
X004927Y005080D01*
X005047Y005200D01*
X004227Y004960D02*
X007187Y004960D01*
X007187Y004240D02*
X007427Y004000D01*
X009967Y004000D01*
X008747Y003560D02*
X008567Y003740D01*
X005547Y003740D01*
X005427Y003620D01*
X004807Y003860D02*
X004807Y004060D01*
X004547Y003540D02*
X004467Y003460D01*
X004457Y003443D01*
X003167Y004540D02*
X002947Y004320D01*
X003167Y004540D02*
X003807Y004540D01*
X004227Y004960D01*
X003567Y005100D02*
X003567Y005280D01*
X003554Y005290D01*
X002387Y003840D02*
X002427Y003800D01*
X001187Y002600D02*
X001087Y002500D01*
X001077Y002498D01*
X009027Y002980D02*
X009087Y003040D01*
X009867Y003040D01*
X009867Y003060D01*
D19*
X009027Y002980D03*
X008747Y003560D03*
X009967Y004000D03*
X007187Y004240D03*
X006167Y003980D03*
X005427Y003620D03*
X005207Y003320D03*
X006427Y003500D03*
X005427Y004500D03*
X005047Y005200D03*
X003327Y004780D03*
X002807Y004780D03*
X002947Y004320D03*
X002387Y003840D03*
X001587Y003980D03*
X001547Y004500D03*
X003387Y003800D03*
X003987Y003840D03*
X002147Y003260D03*
X002707Y002380D03*
X003067Y002380D03*
X001687Y001440D03*
X003067Y001320D03*
X004887Y001900D03*
X005167Y001660D03*
X005647Y001900D03*
X008147Y001840D03*
X008507Y002160D03*
X008747Y001880D03*
X007187Y004960D03*
M02*
